<?xml version="1.0" encoding="utf-8"?>
<!-- Generator: Adobe Illustrator 18.0.0, SVG Export Plug-In . SVG Version: 6.00 Build 0)  -->
<!DOCTYPE svg PUBLIC "-//W3C//DTD SVG 1.1//EN" "http://www.w3.org/Graphics/SVG/1.1/DTD/svg11.dtd">
<svg version="1.1" id="Layer_1" xmlns="http://www.w3.org/2000/svg" xmlns:xlink="http://www.w3.org/1999/xlink" x="0px" y="0px"
	 viewBox="0 0 1700 1400" enable-background="new 0 0 1700 1400" xml:space="preserve">
<g>
	<rect fill="#FFFFFF" width="1700" height="1400"/>
	<g>
		<g>
			<path fill="#E8F6FF" d="M158.7,739.2c39.1-21.3,83.4-31.9,122.4-53.3c43.3-23.8,78.2-59.8,117.1-90.3
				c38.8-30.4,85.2-56.3,134.5-53.8c46,2.4,87.3,29,132.6,37.3c86,15.7,168.4-35.6,241.7-83.3s158.9-96,243.4-73.7
				c79.7,21,132.6,99.2,209.8,128.1c51.2,19.2,107.7,14.8,162.3,15.8c20.7,0.4,42,1.9,62.7,5.7c-41.9-147.4-146-277.1-283.5-345.1
				c-159-78.7-358.3-71.2-509.2,22.2C684.4,315.5,599.9,423,479.3,463.5c-84.2,28.3-180.9,21.7-255.3,70.2
				c-63.2,41.1-97.8,114.8-114.9,188.2c-5.7,24.4-9.6,49.3-12,74.6C110.8,772.5,134,752.6,158.7,739.2z"/>
			<path fill="#CFEEFF" d="M1585.2,571.6c-20.6-3.8-41.9-5.3-62.7-5.7c-54.7-1-111.1,3.4-162.3-15.8
				c-77.2-28.9-130.1-107-209.8-128.1c-84.5-22.3-170.1,26-243.4,73.7s-155.7,99.1-241.7,83.3c-45.3-8.3-86.6-35-132.6-37.3
				c-49.3-2.5-95.6,23.4-134.5,53.8c-38.8,30.4-73.8,66.5-117.1,90.3c-39,21.4-83.3,32-122.4,53.3c-24.7,13.5-47.9,33.3-61.6,57.3
				c-13.7,147.2,28,305.6,116.7,421h1250c82.7-170,163.2-388.4,136.4-575.5C1596.8,618.2,1591.8,594.7,1585.2,571.6z"/>
		</g>
		<g>
			<path fill="#89D2FF" d="M1516.3,766.3c-15.7-14.4-35.4-25-46.9-42.9c-14.8-23.1-12.5-53.2-22.9-78.6
				c-13.6-33.1-50.8-55-86.3-50.1s-65.5,36.7-67.8,72.4c-1.4,20.9,5.8,42.1,1,62.5c-6,25.4-28.6,42.8-46.3,62
				c-29.5,31.8-48.1,74.1-49.2,117.5s16,87.4,47.8,117c30.6,28.5,72.1,42.3,113.3,49.7c30.3,5.5,62.1,7.8,91.2-2
				c51.5-17.4,83.9-69.1,99.5-121.2c9.5-31.9,14.4-65.6,9.9-98.6C1555.2,821,1540.8,788.8,1516.3,766.3z"/>
			<g>
				<path fill="#39B4FF" d="M1394.6,980.4C1394.6,980.4,1394.6,980.4,1394.6,980.4v-57.9c0,0,0,0,0,0v-33.7c0.9-0.5,1.8-1.1,2.6-1.8
					l70.7-70.7c3.9-3.9,3.9-10.2,0-14.1c-3.9-3.9-10.2-3.9-14.1,0l-59.1,59.1v-32.3c0,0,0,0,0,0v-91.5c0-5.5-4.5-10-10-10
					s-10,4.5-10,10v67.3l-15.3-15.3c-3.9-3.9-10.2-3.9-14.1,0c-3.9,3.9-3.9,10.2,0,14.1l29.4,29.4v65.2l-63.5-63.5
					c-3.9-3.9-10.2-3.9-14.1,0c-3.9,3.9-3.9,10.2,0,14.1l77.7,77.7v29.6l-14.2-14.2c-3.9-3.9-10.2-3.9-14.1,0
					c-3.9,3.9-3.9,10.2,0,14.1l28.4,28.4v237.9c0,0.8,0.1,1.6,0.3,2.3h19.4c0.2-0.7,0.3-1.5,0.3-2.3V980.4z"/>
			</g>
		</g>
		<g>
			<path fill="#89D2FF" d="M774.5,635.2c-15.7-14.4-35.4-25-46.9-42.9c-14.8-23.1-12.5-53.2-22.9-78.6c-13.6-33.1-50.8-55-86.3-50.1
				c-35.5,4.9-65.5,36.7-67.8,72.4c-1.4,20.9,5.8,42.1,1,62.5c-6,25.4-28.6,42.8-46.3,62c-29.5,31.8-48.1,74.1-49.2,117.5
				s16,87.4,47.8,117c30.6,28.5,72.1,42.3,113.3,49.7c30.3,5.5,62.1,7.8,91.2-2c51.5-17.4,83.9-69.1,99.5-121.2
				c9.5-31.9,14.4-65.6,9.9-98.6C813.4,690,799,657.8,774.5,635.2z"/>
			<g>
				<path fill="#39B4FF" d="M652.8,849.4C652.8,849.4,652.8,849.4,652.8,849.4v-57.9c0,0,0,0,0,0v-33.7c0.9-0.5,1.8-1.1,2.6-1.8
					l70.7-70.7c3.9-3.9,3.9-10.2,0-14.1c-3.9-3.9-10.2-3.9-14.1,0l-59.1,59.1v-32.3c0,0,0,0,0,0v-91.5c0-5.5-4.5-10-10-10
					s-10,4.5-10,10v67.3l-15.3-15.3c-3.9-3.9-10.2-3.9-14.1,0c-3.9,3.9-3.9,10.2,0,14.1l29.4,29.4v65.2l-63.5-63.5
					c-3.9-3.9-10.2-3.9-14.1,0c-3.9,3.9-3.9,10.2,0,14.1l77.7,77.7v29.6L618.6,811c-3.9-3.9-10.2-3.9-14.1,0
					c-3.9,3.9-3.9,10.2,0,14.1l28.4,28.4v362.7c0,0.8,0.1,1.6,0.3,2.3h19.4c0.2-0.7,0.3-1.5,0.3-2.3V849.4z"/>
			</g>
		</g>
		<g>
			<path fill="#89D2FF" d="M1220.1,635.2c-15.7-14.4-35.4-25-46.9-42.9c-14.8-23.1-12.5-53.2-22.9-78.6
				c-13.6-33.1-50.8-55-86.3-50.1c-35.5,4.9-65.5,36.7-67.8,72.4c-1.4,20.9,5.8,42.1,1,62.5c-6,25.4-28.6,42.8-46.3,62
				c-29.5,31.8-48.1,74.1-49.2,117.5s16,87.4,47.8,117c30.6,28.5,72.1,42.3,113.3,49.7c30.3,5.5,62.1,7.8,91.2-2
				c51.5-17.4,83.9-69.1,99.5-121.2c9.5-31.9,14.4-65.6,9.9-98.6C1258.9,690,1244.6,657.8,1220.1,635.2z"/>
			<g>
				<path fill="#39B4FF" d="M1098.4,849.4C1098.4,849.4,1098.4,849.4,1098.4,849.4v-57.9c0,0,0,0,0,0v-33.7c0.9-0.5,1.8-1.1,2.6-1.8
					l70.7-70.7c3.9-3.9,3.9-10.2,0-14.1c-3.9-3.9-10.2-3.9-14.1,0l-59.1,59.1v-32.3c0,0,0,0,0,0v-91.5c0-5.5-4.5-10-10-10
					s-10,4.5-10,10v67.3l-15.3-15.3c-3.9-3.9-10.2-3.9-14.1,0c-3.9,3.9-3.9,10.2,0,14.1l29.4,29.4v65.2l-63.5-63.5
					c-3.9-3.9-10.2-3.9-14.1,0c-3.9,3.9-3.9,10.2,0,14.1l77.7,77.7v29.6l-14.2-14.2c-3.9-3.9-10.2-3.9-14.1,0
					c-3.9,3.9-3.9,10.2,0,14.1l28.4,28.4v362.7c0,0.8,0.1,1.6,0.3,2.3h19.4c0.2-0.7,0.3-1.5,0.3-2.3V849.4z"/>
			</g>
		</g>
		<g>
			<path fill="#89D2FF" d="M419,766.3c-15.7-14.4-35.4-25-46.9-42.9c-14.8-23.1-12.5-53.2-22.9-78.6c-13.6-33.1-50.8-55-86.3-50.1
				s-65.5,36.7-67.8,72.4c-1.4,20.9,5.8,42.1,1,62.5c-6,25.4-28.6,42.8-46.3,62c-29.5,31.8-48.1,74.1-49.2,117.5
				c-1.1,43.4,16,87.4,47.8,117c30.6,28.5,72.1,42.3,113.3,49.7c30.3,5.5,62.1,7.8,91.2-2c51.5-17.4,83.9-69.1,99.5-121.2
				c9.5-31.9,14.4-65.6,9.9-98.6C457.8,821,443.5,788.8,419,766.3z"/>
			<g>
				<path fill="#39B4FF" d="M297.3,980.4C297.3,980.4,297.3,980.4,297.3,980.4v-57.9c0,0,0,0,0,0v-33.7c0.9-0.5,1.8-1.1,2.6-1.8
					l70.7-70.7c3.9-3.9,3.9-10.2,0-14.1c-3.9-3.9-10.2-3.9-14.1,0l-59.1,59.1v-32.3c0,0,0,0,0,0v-91.5c0-5.5-4.5-10-10-10
					s-10,4.5-10,10v67.3L262,789.5c-3.9-3.9-10.2-3.9-14.1,0c-3.9,3.9-3.9,10.2,0,14.1l29.4,29.4v65.2l-63.5-63.5
					c-3.9-3.9-10.2-3.9-14.1,0c-3.9,3.9-3.9,10.2,0,14.1l77.7,77.7v29.6L263,942c-3.9-3.9-10.2-3.9-14.1,0c-3.9,3.9-3.9,10.2,0,14.1
					l28.4,28.4v237.9c0,0.8,0.1,1.6,0.3,2.3H297c0.2-0.7,0.3-1.5,0.3-2.3V980.4z"/>
			</g>
		</g>
		<g>
			<g>
				<path fill="#4E4C4F" d="M1491.2,1227.4H186c-2.8,0-5-2.2-5-5s2.2-5,5-5h1305.1c2.8,0,5,2.2,5,5S1493.9,1227.4,1491.2,1227.4z"/>
			</g>
			<g>
				<polygon fill="#F2862B" points="918.2,627.5 791.1,627.5 747.8,669.4 874.8,669.4 				"/>
				<path fill="#5B5B5B" d="M386.9,776.6h-24.2c-4.2,0-7.6,3.4-7.6,7.6v95.6c0,4.2,3.4,7.6,7.6,7.6h24.2V776.6z"/>
				<path fill="#5B5B5B" d="M501.4,1182.4c10.6,0,19.9-12.1,21.7-27h-43.4C481.4,1170.3,490.8,1182.4,501.4,1182.4z"/>
				<path fill="#5B5B5B" d="M975.4,1182.4c10.6,0,19.9-12.1,21.7-27h-43.4C955.4,1170.3,964.8,1182.4,975.4,1182.4z"/>
				<path fill="#F2862B" d="M1316.5,1143c-0.1-0.6-0.1-1.2-0.2-1.8c-0.1-0.5-0.1-1-0.2-1.5c-0.1-0.6-0.2-1.2-0.3-1.8
					c-0.1-0.5-0.2-1-0.2-1.4c-0.1-0.6-0.2-1.2-0.3-1.8c-0.1-0.5-0.2-0.9-0.3-1.4c-0.1-0.6-0.3-1.2-0.4-1.8c-0.1-0.4-0.2-0.9-0.3-1.3
					c-0.2-0.6-0.3-1.2-0.5-1.8c-0.1-0.4-0.2-0.8-0.4-1.3c-0.2-0.6-0.4-1.2-0.6-1.8c-0.1-0.4-0.3-0.8-0.4-1.2
					c-0.2-0.6-0.5-1.3-0.7-1.9c-0.1-0.3-0.3-0.7-0.4-1c-0.3-0.7-0.6-1.4-0.9-2.1c-0.1-0.2-0.2-0.5-0.3-0.7c-0.9-1.9-1.8-3.7-2.8-5.4
					c-0.1-0.2-0.2-0.4-0.4-0.6c-0.4-0.7-0.8-1.3-1.2-2c-0.2-0.3-0.4-0.6-0.6-0.8c-0.4-0.6-0.7-1.1-1.1-1.6c-0.2-0.3-0.4-0.6-0.7-0.9
					c-0.4-0.5-0.7-1-1.1-1.5c-0.2-0.3-0.5-0.6-0.7-0.9c-0.4-0.5-0.7-0.9-1.1-1.4c-0.3-0.3-0.5-0.6-0.8-0.9c-0.4-0.4-0.7-0.8-1.1-1.3
					c-0.3-0.3-0.6-0.6-0.9-0.9c-0.4-0.4-0.8-0.8-1.2-1.2c-0.3-0.3-0.6-0.6-0.9-0.9c-0.4-0.4-0.8-0.7-1.2-1.1c-0.3-0.3-0.6-0.6-1-0.8
					c-0.4-0.3-0.8-0.7-1.2-1c-0.3-0.3-0.7-0.5-1-0.8c-0.4-0.3-0.8-0.6-1.3-0.9c-0.3-0.3-0.7-0.5-1-0.7c-0.4-0.3-0.9-0.6-1.3-0.9
					c-0.4-0.2-0.7-0.5-1.1-0.7c-0.4-0.3-0.9-0.5-1.3-0.8c-0.4-0.2-0.7-0.4-1.1-0.6c-0.4-0.2-0.9-0.5-1.4-0.7
					c-0.4-0.2-0.7-0.4-1.1-0.6c-0.5-0.2-0.9-0.4-1.4-0.6c-0.4-0.2-0.8-0.3-1.1-0.5c-0.5-0.2-1-0.4-1.4-0.6c-0.4-0.1-0.8-0.3-1.2-0.4
					c-0.5-0.2-1-0.3-1.5-0.5c-0.4-0.1-0.8-0.3-1.2-0.4c-0.5-0.1-1-0.3-1.5-0.4c-0.4-0.1-0.8-0.2-1.2-0.3c-0.5-0.1-1.1-0.2-1.6-0.3
					c-0.4-0.1-0.8-0.2-1.2-0.2c-0.6-0.1-1.1-0.2-1.7-0.3c-0.4-0.1-0.7-0.1-1.1-0.2c-0.6-0.1-1.3-0.1-1.9-0.2c-0.3,0-0.6-0.1-0.9-0.1
					c-0.9-0.1-1.9-0.1-2.9-0.1c0,0,0,0,0,0c19.1,12.5,32.4,35.4,33.9,62h23c0-0.3,0-0.7-0.1-1
					C1316.6,1144,1316.5,1143.5,1316.5,1143z"/>
				<path fill="#F2862B" d="M842.5,1143c-0.1-0.6-0.1-1.2-0.2-1.8c-0.1-0.5-0.1-1-0.2-1.5c-0.1-0.6-0.2-1.2-0.3-1.8
					c-0.1-0.5-0.2-1-0.2-1.4c-0.1-0.6-0.2-1.2-0.3-1.8c-0.1-0.5-0.2-0.9-0.3-1.4c-0.1-0.6-0.3-1.2-0.4-1.8c-0.1-0.4-0.2-0.9-0.3-1.3
					c-0.2-0.6-0.3-1.2-0.5-1.8c-0.1-0.4-0.2-0.8-0.4-1.3c-0.2-0.6-0.4-1.2-0.6-1.8c-0.1-0.4-0.3-0.8-0.4-1.2
					c-0.2-0.6-0.5-1.3-0.7-1.9c-0.1-0.3-0.3-0.7-0.4-1c-0.3-0.7-0.6-1.4-0.9-2.1c-0.1-0.2-0.2-0.5-0.3-0.7c-0.9-1.9-1.8-3.7-2.8-5.4
					c-0.1-0.2-0.2-0.4-0.4-0.6c-0.4-0.7-0.8-1.3-1.2-2c-0.2-0.3-0.4-0.6-0.6-0.8c-0.4-0.6-0.7-1.1-1.1-1.6c-0.2-0.3-0.4-0.6-0.7-0.9
					c-0.4-0.5-0.7-1-1.1-1.5c-0.2-0.3-0.5-0.6-0.7-0.9c-0.4-0.5-0.7-0.9-1.1-1.4c-0.3-0.3-0.5-0.6-0.8-0.9c-0.4-0.4-0.7-0.8-1.1-1.3
					c-0.3-0.3-0.6-0.6-0.9-0.9c-0.4-0.4-0.8-0.8-1.2-1.2c-0.3-0.3-0.6-0.6-0.9-0.9c-0.4-0.4-0.8-0.7-1.2-1.1c-0.3-0.3-0.6-0.6-1-0.8
					c-0.4-0.3-0.8-0.7-1.2-1c-0.3-0.3-0.7-0.5-1-0.8c-0.4-0.3-0.8-0.6-1.3-0.9c-0.3-0.3-0.7-0.5-1-0.7c-0.4-0.3-0.9-0.6-1.3-0.9
					c-0.4-0.2-0.7-0.5-1.1-0.7c-0.4-0.3-0.9-0.5-1.3-0.8c-0.4-0.2-0.7-0.4-1.1-0.6c-0.4-0.2-0.9-0.5-1.4-0.7
					c-0.4-0.2-0.7-0.4-1.1-0.6c-0.5-0.2-0.9-0.4-1.4-0.6c-0.4-0.2-0.8-0.3-1.1-0.5c-0.5-0.2-1-0.4-1.4-0.6c-0.4-0.1-0.8-0.3-1.2-0.4
					c-0.5-0.2-1-0.3-1.5-0.5c-0.4-0.1-0.8-0.3-1.2-0.4c-0.5-0.1-1-0.3-1.5-0.4c-0.4-0.1-0.8-0.2-1.2-0.3c-0.5-0.1-1.1-0.2-1.6-0.3
					c-0.4-0.1-0.8-0.2-1.2-0.2c-0.6-0.1-1.1-0.2-1.7-0.3c-0.4-0.1-0.7-0.1-1.1-0.2c-0.6-0.1-1.3-0.1-1.9-0.2c-0.3,0-0.6-0.1-0.9-0.1
					c-0.9-0.1-1.9-0.1-2.9-0.1c0,0,0,0,0,0c19.1,12.5,32.4,35.4,33.9,62h23c0-0.3,0-0.7-0.1-1C842.6,1144,842.5,1143.5,842.5,1143z"
					/>
				<path fill="#5B5B5B" d="M769.4,1086.4c-12.7,4.5-23.5,14.1-30.8,26.7c4.3-2.9,9.2-4.6,14.3-4.6c17.3,0,32,19.2,32,42
					c0,22.7-14.7,42-32,42c-16.1,0-29.8-16.5-31.8-37H696c2.2,34.6,26.8,62,56.8,62c31.4,0,57-30,57-67
					C809.9,1120.3,792.8,1094.7,769.4,1086.4z"/>
				<path fill="#FFFFF2" d="M752.9,1182.4c11.7,0,22-14.9,22-32s-10.3-32-22-32s-22,14.9-22,32S741.1,1182.4,752.9,1182.4z"/>
				<path fill="#5B5B5B" d="M1243.4,1086.4c-12.7,4.5-23.5,14.1-30.8,26.7c4.3-2.9,9.2-4.6,14.3-4.6c17.3,0,32,19.2,32,42
					c0,22.7-14.7,42-32,42c-16.1,0-29.8-16.5-31.8-37H1170c2.2,34.6,26.8,62,56.8,62c31.4,0,57-30,57-67
					C1283.9,1120.3,1266.8,1094.7,1243.4,1086.4z"/>
				<path fill="#FFFFF2" d="M1226.9,1182.4c11.7,0,22-14.9,22-32s-10.3-32-22-32s-22,14.9-22,32S1215.1,1182.4,1226.9,1182.4z"/>
				<path fill="#FFD11B" d="M728.9,1096.4c0,2.8-2.2,5-5,5h-125c-2.8,0-5-2.2-5-5V897.5h-10.7v55.2c0.2,1.9,0.3,3.9,0.3,5.9v91.7
					c0,0.6-0.1,1.2-0.3,1.8v55.7h55.4c2.8,0,5,2.2,5,5v32.6H719c2.3-40.1,31.4-72,66.9-72s64.6,31.8,66.9,72H1193
					c2.3-40.1,31.4-72,66.9-72s64.6,31.8,66.9,72h17.9v-32.6c0-2.8,2.2-5,5-5h25V920.4H728.9V1096.4z M831.7,946.5c0-2.8,2.2-5,5-5
					h439.5c2.8,0,5,2.2,5,5v88.3c0,2.8-2.2,5-5,5H836.7c-2.8,0-5-2.2-5-5V946.5z"/>
				<path fill="#FFD11B" d="M1350.2,747.5v145c0,2.8-2.2,5-5,5H760.4c-2.8,0-5-2.2-5-5v-145h-26.6v163h645.7v-163H1350.2z"/>
				<rect x="583.1" y="747.5" fill="#FFD11B" width="10.7" height="19.2"/>
				<path fill="#FFB419" d="M607.9,897.5h-4.1v193.9h115V747.5h-115v19.2h4.1c2.1,0,4.1,0.4,6,1.1c3.9-8.7,12.6-14.8,22.7-14.8h49.5
					c13.7,0,24.9,11.2,24.9,24.9v283.3c0,13.7-11.2,24.9-24.9,24.9h-49.5c-13.7,0-24.9-11.2-24.9-24.9V897
					C610.5,897.3,609.2,897.5,607.9,897.5z"/>
				<path fill="#B4DCEE" d="M621.8,890.7v170.3c0,8.2,6.7,14.9,14.9,14.9h49.5c8.2,0,14.9-6.7,14.9-14.9V777.8
					c0-8.2-6.7-14.9-14.9-14.9h-49.5c-6.9,0-12.7,4.7-14.4,11.1c2.1,2.9,3.3,6.4,3.3,10.2v95.6C625.5,884,624.1,887.7,621.8,890.7z"
					/>
				<path fill="#FFB419" d="M396.9,905.4h39.7c0.4,0,0.9,0,1.3,0h92.4c17.6,0,33.2,8.6,42.9,21.7v-29.7H396.9V905.4z"/>
				<path fill="#FFD11B" d="M530.3,915.4h-69.1c6.6,6.4,10.7,15.4,10.7,25.3v34.7h27.5h74.1v-16.7
					C573.5,934.8,554.1,915.4,530.3,915.4z"/>
				<path fill="#FFB419" d="M461.9,980.4v-39.7c0-14-11.4-25.3-25.3-25.3h-71.6c-14,0-25.3,11.4-25.3,25.3v39.7v127.4h122.3V980.4z
					 M387.1,1096.5h-32c-2.8,0-5-2.2-5-5s2.2-5,5-5h32c2.8,0,5,2.2,5,5S389.9,1096.5,387.1,1096.5z M387.1,1077.6h-32
					c-2.8,0-5-2.2-5-5s2.2-5,5-5h32c2.8,0,5,2.2,5,5S389.9,1077.6,387.1,1077.6z M387.1,1058.6h-32c-2.8,0-5-2.2-5-5s2.2-5,5-5h32
					c2.8,0,5,2.2,5,5S389.9,1058.6,387.1,1058.6z M387.1,1039.7h-32c-2.8,0-5-2.2-5-5s2.2-5,5-5h32c2.8,0,5,2.2,5,5
					S389.9,1039.7,387.1,1039.7z M387.1,1020.8h-32c-2.8,0-5-2.2-5-5s2.2-5,5-5h32c2.8,0,5,2.2,5,5S389.9,1020.8,387.1,1020.8z
					 M387.1,1001.9h-32c-2.8,0-5-2.2-5-5s2.2-5,5-5h32c2.8,0,5,2.2,5,5S389.9,1001.9,387.1,1001.9z M387.1,983h-32c-2.8,0-5-2.2-5-5
					s2.2-5,5-5h32c2.8,0,5,2.2,5,5S389.9,983,387.1,983z M387.1,964.1h-32c-2.8,0-5-2.2-5-5s2.2-5,5-5h32c2.8,0,5,2.2,5,5
					S389.9,964.1,387.1,964.1z M387.1,945.1h-32c-2.8,0-5-2.2-5-5s2.2-5,5-5h32c2.8,0,5,2.2,5,5S389.9,945.1,387.1,945.1z
					 M443.6,1096.5h-37c-2.8,0-5-2.2-5-5s2.2-5,5-5h37c2.8,0,5,2.2,5,5S446.4,1096.5,443.6,1096.5z M443.6,1077.6h-37
					c-2.8,0-5-2.2-5-5s2.2-5,5-5h37c2.8,0,5,2.2,5,5S446.4,1077.6,443.6,1077.6z M443.6,1058.6h-37c-2.8,0-5-2.2-5-5s2.2-5,5-5h37
					c2.8,0,5,2.2,5,5S446.4,1058.6,443.6,1058.6z M443.6,1039.7h-37c-2.8,0-5-2.2-5-5s2.2-5,5-5h37c2.8,0,5,2.2,5,5
					S446.4,1039.7,443.6,1039.7z M443.6,1020.8h-37c-2.8,0-5-2.2-5-5s2.2-5,5-5h37c2.8,0,5,2.2,5,5S446.4,1020.8,443.6,1020.8z
					 M443.6,1001.9h-37c-2.8,0-5-2.2-5-5s2.2-5,5-5h37c2.8,0,5,2.2,5,5S446.4,1001.9,443.6,1001.9z M443.6,983h-37c-2.8,0-5-2.2-5-5
					s2.2-5,5-5h37c2.8,0,5,2.2,5,5S446.4,983,443.6,983z M443.6,964.1h-37c-2.8,0-5-2.2-5-5s2.2-5,5-5h37c2.8,0,5,2.2,5,5
					S446.4,964.1,443.6,964.1z M443.6,945.1h-37c-2.8,0-5-2.2-5-5s2.2-5,5-5h37c2.8,0,5,2.2,5,5S446.4,945.1,443.6,945.1z"/>
				<path fill="#FFB419" d="M329.6,985.4h-19.8c-15.2,0-27.5,12.3-27.5,27.5v94.9h47.3V985.4z M324.2,1028.3
					c0,10.1-8.2,18.3-18.3,18.3s-18.3-8.2-18.3-18.3v-8.4c0-10.1,8.2-18.3,18.3-18.3s18.3,8.2,18.3,18.3V1028.3z"/>
				<path fill="#FFD11B" d="M573.1,1107.8V985.4h-48.3c7.4,6.9,12,16.6,12,27.5v94.9H573.1z"/>
				<path fill="#FFB419" d="M499.4,985.4h-27.5v122.4h55v-94.9C526.9,997.7,514.5,985.4,499.4,985.4z M514.9,1028.3
					c0,10.1-8.2,18.3-18.3,18.3s-18.3-8.2-18.3-18.3v-8.4c0-10.1,8.2-18.3,18.3-18.3s18.3,8.2,18.3,18.3V1028.3z"/>
				<path fill="#B4DCEE" d="M573.1,747.5H490v140h76.6c-1.1-2.3-1.8-4.9-1.8-7.6v-95.6c0-6.3,3.3-11.8,8.3-14.9V747.5z"/>
				<rect x="396.9" y="747.5" fill="#B4DCEE" width="83.1" height="140"/>
				<rect x="911.6" y="795.5" fill="#B4DCEE" width="136.2" height="92"/>
				<rect x="1204" y="747.5" fill="#E9F8FF" width="136.2" height="38"/>
				<rect x="765.4" y="747.5" fill="#E9F8FF" width="136.2" height="38"/>
				<rect x="765.4" y="795.5" fill="#B4DCEE" width="136.2" height="92"/>
				<rect x="911.6" y="747.5" fill="#E9F8FF" width="136.2" height="38"/>
				<rect x="1204" y="795.5" fill="#B4DCEE" width="136.2" height="92"/>
				<rect x="1057.8" y="795.5" fill="#B4DCEE" width="136.2" height="92"/>
				<rect x="1057.8" y="747.5" fill="#E9F8FF" width="136.2" height="38"/>
				<path fill="#F2862B" d="M573.3,737.5c1.7-24.8,15.7-46.2,36-58.1H434.2c-33.1,0-60.3,25.6-62.9,58.1h20.5H573.3z"/>
				<path fill="#FFB419" d="M1343.8,679.4h-145.9h-66.1h-75.3H876.9H735.5h-89.3c-33.1,0-60.3,25.6-62.9,58.1h15.5h125h36.6h434.2
					h150.5h34.4h27.1C1404.1,705,1376.9,679.4,1343.8,679.4z"/>
				<path fill="#4E4C4F" d="M1411.9,747.5c2.8,0,5-2.2,5-5c0-40.3-32.8-73.1-73.1-73.1h-143.9l-52.2-50.5c-0.9-0.9-2.2-1.4-3.5-1.4
					h-141.4h-72.3H789.1c-1.3,0-2.5,0.5-3.5,1.4l-52.2,50.5h-87.2h-212c-40.3,0-73.1,32.8-73.1,73.1c0,2.8,2.2,5,5,5h20.7v19.2
					h-24.2c-9.7,0-17.6,7.9-17.6,17.6v95.6c0,9.7,7.9,17.6,17.6,17.6h24.2v7.9h-22c-19.5,0-35.3,15.9-35.3,35.3v34.7h-19.8
					c-20.7,0-37.5,16.8-37.5,37.5v94.9h-14.5c-2.8,0-5,2.2-5,5v37.6c0,2.8,2.2,5,5,5h19.5h57.3h15.5v8.4c0,2.8,2.2,5,5,5h52.2
					c7.2,33.6,33.6,58.5,65,58.5h29c35.5,0,64.6-31.8,66.8-72h9.9h0.3h60H657c2.3,40.1,31.4,72,66.8,72h29c35.5,0,64.6-31.8,66.8-72
					h28.2h31.7c2.3,40.1,31.4,72,66.8,72h29c35.5,0,64.6-31.8,66.8-72h88.8c2.3,40.1,31.4,72,66.8,72h29c35.5,0,64.6-31.8,66.8-72
					h28.1h27.7h30h30c2.8,0,5-2.2,5-5v-37.6c0-2.8-2.2-5-5-5h-25V920.4c2.8,0,5-2.2,5-5s-2.2-5-5-5v-163H1411.9z M932.5,627.5h68.2
					h141.4l43.3,41.9h-53.7h-87.7H889.2L932.5,627.5z M791.1,627.5h127l-43.3,41.9h-127L791.1,627.5z M371.3,737.5
					c2.6-32.4,29.8-58.1,62.9-58.1h175.2c-20.3,11.9-34.4,33.3-36,58.1H391.9H371.3z M583.1,747.5h10.7v19.2h-10.7V747.5z
					 M573.1,897.5v29.7c-9.7-13.2-25.3-21.7-42.9-21.7h-92.4c-0.4,0-0.9,0-1.3,0h-39.7v-7.9H573.1z M396.9,887.5v-140H480v140H396.9
					z M564.9,784.2v95.6c0,2.7,0.6,5.3,1.8,7.6H490v-140h83.1v21.9C568.2,772.5,564.9,778,564.9,784.2z M362.7,887.5
					c-4.2,0-7.6-3.4-7.6-7.6v-95.6c0-4.2,3.4-7.6,7.6-7.6h24.2v110.8H362.7z M339.6,980.4v-39.7c0-14,11.4-25.3,25.3-25.3h71.6
					c14,0,25.3,11.4,25.3,25.3v39.7v127.4H339.6V980.4z M524.8,985.4h48.3v122.4h-36.3v-94.9C536.9,1002,532.2,992.2,524.8,985.4z
					 M526.9,1012.9v94.9h-55V985.4h27.5C514.5,985.4,526.9,997.7,526.9,1012.9z M501.4,1182.4c-10.6,0-19.9-12.1-21.7-27h43.4
					C521.3,1170.3,511.9,1182.4,501.4,1182.4z M282.2,1012.9c0-15.2,12.3-27.5,27.5-27.5h19.8v122.4h-47.3V1012.9z M360.1,1158.9
					v-22.2h74.3v22.2H360.1z M573.5,975.4h-74.1h-27.5v-34.7c0-9.9-4.1-18.9-10.7-25.3h69.1c23.8,0,43.2,19.4,43.2,43.2V975.4z
					 M574.9,879.9v-95.6c0-4.2,3.4-7.6,7.6-7.6h25.4c4.2,0,7.6,3.4,7.6,7.6v95.6c0,4.2-3.4,7.6-7.6,7.6h-25.4
					C578.3,887.5,574.9,884.1,574.9,879.9z M636.6,1085.9h49.5c13.7,0,24.9-11.2,24.9-24.9V777.8c0-13.7-11.2-24.9-24.9-24.9h-49.5
					c-10.1,0-18.8,6.1-22.7,14.8c-1.9-0.7-3.9-1.1-6-1.1h-4.1v-19.2h115v343.9h-115V897.5h4.1c1.3,0,2.6-0.2,3.8-0.4v164
					C611.8,1074.8,622.9,1085.9,636.6,1085.9z M622.2,774c1.7-6.4,7.5-11.1,14.4-11.1h49.5c8.2,0,14.9,6.7,14.9,14.9v283.3
					c0,8.2-6.7,14.9-14.9,14.9h-49.5c-8.2,0-14.9-6.7-14.9-14.9V890.7c2.4-3,3.8-6.8,3.8-10.9v-95.6
					C625.5,780.4,624.3,776.9,622.2,774z M633.5,1145.5h-50v-27.6h50V1145.5z M752.9,1217.4c-30,0-54.6-27.4-56.8-62h25.1
					c2,20.5,15.7,37,31.8,37c17.3,0,32-19.2,32-42c0-22.7-14.7-42-32-42c-5.1,0-9.9,1.7-14.3,4.6c7.3-12.6,18.1-22.2,30.8-26.7
					c23.4,8.3,40.5,33.9,40.5,64.1C809.9,1187.4,784.3,1217.4,752.9,1217.4z M730.9,1150.5c0-17,10.3-32,22-32s22,14.9,22,32
					s-10.3,32-22,32S730.9,1167.5,730.9,1150.5z M819.7,1145.5c-1.5-26.6-14.8-49.5-33.9-62c0,0,0,0,0,0c1,0,1.9,0,2.9,0.1
					c0.3,0,0.6,0.1,0.9,0.1c0.6,0,1.3,0.1,1.9,0.2c0.4,0,0.7,0.1,1.1,0.2c0.6,0.1,1.1,0.2,1.7,0.3c0.4,0.1,0.8,0.2,1.2,0.2
					c0.5,0.1,1.1,0.2,1.6,0.3c0.4,0.1,0.8,0.2,1.2,0.3c0.5,0.1,1,0.3,1.5,0.4c0.4,0.1,0.8,0.2,1.2,0.4c0.5,0.2,1,0.3,1.5,0.5
					c0.4,0.1,0.8,0.3,1.2,0.4c0.5,0.2,1,0.4,1.4,0.6c0.4,0.2,0.8,0.3,1.1,0.5c0.5,0.2,0.9,0.4,1.4,0.6c0.4,0.2,0.8,0.4,1.1,0.6
					c0.5,0.2,0.9,0.5,1.4,0.7c0.4,0.2,0.7,0.4,1.1,0.6c0.4,0.3,0.9,0.5,1.3,0.8c0.4,0.2,0.7,0.5,1.1,0.7c0.4,0.3,0.9,0.6,1.3,0.9
					c0.3,0.2,0.7,0.5,1,0.7c0.4,0.3,0.8,0.6,1.3,0.9c0.3,0.3,0.7,0.5,1,0.8c0.4,0.3,0.8,0.7,1.2,1c0.3,0.3,0.6,0.5,1,0.8
					c0.4,0.4,0.8,0.7,1.2,1.1c0.3,0.3,0.6,0.6,0.9,0.9c0.4,0.4,0.8,0.8,1.2,1.2c0.3,0.3,0.6,0.6,0.9,0.9c0.4,0.4,0.8,0.8,1.1,1.3
					c0.3,0.3,0.5,0.6,0.8,0.9c0.4,0.4,0.7,0.9,1.1,1.4c0.2,0.3,0.5,0.6,0.7,0.9c0.4,0.5,0.7,1,1.1,1.5c0.2,0.3,0.4,0.6,0.7,0.9
					c0.4,0.5,0.7,1.1,1.1,1.6c0.2,0.3,0.4,0.6,0.6,0.8c0.4,0.6,0.8,1.3,1.2,2c0.1,0.2,0.2,0.4,0.4,0.6c1,1.8,1.9,3.6,2.8,5.4
					c0.1,0.2,0.2,0.5,0.3,0.7c0.3,0.7,0.6,1.4,0.9,2.1c0.1,0.3,0.3,0.7,0.4,1c0.2,0.6,0.5,1.2,0.7,1.9c0.1,0.4,0.3,0.8,0.4,1.2
					c0.2,0.6,0.4,1.2,0.6,1.8c0.1,0.4,0.3,0.8,0.4,1.3c0.2,0.6,0.3,1.2,0.5,1.8c0.1,0.4,0.2,0.9,0.3,1.3c0.1,0.6,0.3,1.2,0.4,1.8
					c0.1,0.5,0.2,0.9,0.3,1.4c0.1,0.6,0.2,1.2,0.3,1.8c0.1,0.5,0.2,1,0.2,1.4c0.1,0.6,0.2,1.2,0.3,1.8c0.1,0.5,0.1,1,0.2,1.5
					c0.1,0.6,0.1,1.2,0.2,1.8c0,0.5,0.1,1,0.1,1.5c0,0.3,0,0.7,0.1,1H819.7z M975.4,1182.4c-10.6,0-19.9-12.1-21.7-27h43.4
					C995.3,1170.3,985.9,1182.4,975.4,1182.4z M1226.9,1217.4c-30,0-54.6-27.4-56.8-62h25.1c2,20.5,15.7,37,31.8,37
					c17.3,0,32-19.2,32-42c0-22.7-14.7-42-32-42c-5.1,0-10,1.7-14.3,4.6c7.3-12.6,18.1-22.2,30.8-26.7c23.4,8.3,40.5,33.9,40.5,64.1
					C1283.9,1187.4,1258.3,1217.4,1226.9,1217.4z M1204.9,1150.5c0-17,10.3-32,22-32s22,14.9,22,32s-10.3,32-22,32
					S1204.9,1167.5,1204.9,1150.5z M1293.7,1145.5c-1.5-26.6-14.8-49.5-33.9-62c0,0,0,0,0,0c1,0,1.9,0,2.9,0.1
					c0.3,0,0.6,0.1,0.9,0.1c0.6,0,1.3,0.1,1.9,0.2c0.4,0,0.7,0.1,1.1,0.2c0.6,0.1,1.1,0.2,1.7,0.3c0.4,0.1,0.8,0.2,1.2,0.2
					c0.5,0.1,1.1,0.2,1.6,0.3c0.4,0.1,0.8,0.2,1.2,0.3c0.5,0.1,1,0.3,1.5,0.4c0.4,0.1,0.8,0.2,1.2,0.4c0.5,0.2,1,0.3,1.5,0.5
					c0.4,0.1,0.8,0.3,1.2,0.4c0.5,0.2,1,0.4,1.4,0.6c0.4,0.2,0.8,0.3,1.1,0.5c0.5,0.2,0.9,0.4,1.4,0.6c0.4,0.2,0.8,0.4,1.1,0.6
					c0.5,0.2,0.9,0.5,1.4,0.7c0.4,0.2,0.7,0.4,1.1,0.6c0.4,0.3,0.9,0.5,1.3,0.8c0.4,0.2,0.7,0.5,1.1,0.7c0.4,0.3,0.9,0.6,1.3,0.9
					c0.3,0.2,0.7,0.5,1,0.7c0.4,0.3,0.8,0.6,1.3,0.9c0.3,0.3,0.7,0.5,1,0.8c0.4,0.3,0.8,0.7,1.2,1c0.3,0.3,0.6,0.5,1,0.8
					c0.4,0.4,0.8,0.7,1.2,1.1c0.3,0.3,0.6,0.6,0.9,0.9c0.4,0.4,0.8,0.8,1.2,1.2c0.3,0.3,0.6,0.6,0.9,0.9c0.4,0.4,0.8,0.8,1.1,1.3
					c0.3,0.3,0.5,0.6,0.8,0.9c0.4,0.4,0.7,0.9,1.1,1.4c0.2,0.3,0.5,0.6,0.7,0.9c0.4,0.5,0.7,1,1.1,1.5c0.2,0.3,0.4,0.6,0.7,0.9
					c0.4,0.5,0.7,1.1,1.1,1.6c0.2,0.3,0.4,0.6,0.6,0.8c0.4,0.6,0.8,1.3,1.2,2c0.1,0.2,0.2,0.4,0.4,0.6c1,1.8,1.9,3.6,2.8,5.4
					c0.1,0.2,0.2,0.5,0.3,0.7c0.3,0.7,0.6,1.4,0.9,2.1c0.1,0.3,0.3,0.7,0.4,1c0.2,0.6,0.5,1.2,0.7,1.9c0.1,0.4,0.3,0.8,0.4,1.2
					c0.2,0.6,0.4,1.2,0.6,1.8c0.1,0.4,0.3,0.8,0.4,1.3c0.2,0.6,0.3,1.2,0.5,1.8c0.1,0.4,0.2,0.9,0.3,1.3c0.1,0.6,0.3,1.2,0.4,1.8
					c0.1,0.5,0.2,0.9,0.3,1.4c0.1,0.6,0.2,1.2,0.3,1.8c0.1,0.5,0.2,1,0.2,1.4c0.1,0.6,0.2,1.2,0.3,1.8c0.1,0.5,0.1,1,0.2,1.5
					c0.1,0.6,0.1,1.2,0.2,1.8c0,0.5,0.1,1,0.1,1.5c0,0.3,0,0.7,0.1,1H1293.7z M1404.6,1117.8v27.6h-30h-20v-27.6H1404.6z
					 M1374.6,1107.8h-25c-2.8,0-5,2.2-5,5v32.6h-17.9c-2.3-40.1-31.4-72-66.9-72s-64.6,31.8-66.9,72H852.7
					c-2.3-40.1-31.4-72-66.9-72s-64.6,31.8-66.9,72h-75.5v-32.6c0-2.8-2.2-5-5-5h-55.4v-55.7c0.2-0.5,0.3-1.1,0.3-1.8v-91.7
					c0-2-0.1-4-0.3-5.9v-55.2h10.7v198.9c0,2.8,2.2,5,5,5h125c2.8,0,5-2.2,5-5v-176h645.7V1107.8z M728.9,910.4v-163h26.6v145
					c0,2.8,2.2,5,5,5h584.7c2.8,0,5-2.2,5-5v-145h24.4v163H728.9z M901.6,795.5v92H765.4v-92H901.6z M765.4,785.5v-38h136.2v38
					H765.4z M1047.8,795.5v92H911.6v-92H1047.8z M911.6,785.5v-38h136.2v38H911.6z M1194,795.5v92h-136.2v-92H1194z M1057.8,785.5
					v-38H1194v38H1057.8z M1340.2,795.5v92H1204v-92H1340.2z M1204,785.5v-38h136.2v38H1204z M1379.6,737.5h-34.4h-150.5H760.4
					h-36.6h-125h-15.5c2.6-32.4,29.8-58.1,62.9-58.1h89.3h141.4h179.6h75.3h66.1h145.9c33.1,0,60.3,25.6,62.9,58.1H1379.6z"/>
				<rect x="583.5" y="1117.8" fill="#5B5B5B" width="50" height="27.6"/>
				<polygon fill="#5B5B5B" points="1354.6,1145.5 1374.6,1145.5 1404.6,1145.5 1404.6,1117.8 1354.6,1117.8 				"/>
				<path fill="#5B5B5B" d="M615.5,879.9v-95.6c0-4.2-3.4-7.6-7.6-7.6h-25.4c-4.2,0-7.6,3.4-7.6,7.6v95.6c0,4.2,3.4,7.6,7.6,7.6
					h25.4C612.1,887.5,615.5,884.1,615.5,879.9z"/>
				<path fill="#B4DCEE" d="M305.9,1011.6c-4.6,0-8.3,3.7-8.3,8.3v8.4c0,4.6,3.7,8.3,8.3,8.3s8.3-3.7,8.3-8.3v-8.4
					C314.2,1015.3,310.5,1011.6,305.9,1011.6z"/>
				<path fill="#4E4C4F" d="M305.9,1001.6c-10.1,0-18.3,8.2-18.3,18.3v8.4c0,10.1,8.2,18.3,18.3,18.3s18.3-8.2,18.3-18.3v-8.4
					C324.2,1009.8,316,1001.6,305.9,1001.6z M314.2,1028.3c0,4.6-3.7,8.3-8.3,8.3s-8.3-3.7-8.3-8.3v-8.4c0-4.6,3.7-8.3,8.3-8.3
					s8.3,3.7,8.3,8.3V1028.3z"/>
				<path fill="#B4DCEE" d="M496.6,1011.6c-4.6,0-8.3,3.7-8.3,8.3v8.4c0,4.6,3.7,8.3,8.3,8.3s8.3-3.7,8.3-8.3v-8.4
					C504.9,1015.3,501.2,1011.6,496.6,1011.6z"/>
				<path fill="#4E4C4F" d="M496.6,1001.6c-10.1,0-18.3,8.2-18.3,18.3v8.4c0,10.1,8.2,18.3,18.3,18.3s18.3-8.2,18.3-18.3v-8.4
					C514.9,1009.8,506.7,1001.6,496.6,1001.6z M504.9,1028.3c0,4.6-3.7,8.3-8.3,8.3s-8.3-3.7-8.3-8.3v-8.4c0-4.6,3.7-8.3,8.3-8.3
					s8.3,3.7,8.3,8.3V1028.3z"/>
				<path fill="#4E4C4F" d="M387.1,935.1h-32c-2.8,0-5,2.2-5,5s2.2,5,5,5h32c2.8,0,5-2.2,5-5S389.9,935.1,387.1,935.1z"/>
				<path fill="#4E4C4F" d="M443.6,935.1h-37c-2.8,0-5,2.2-5,5s2.2,5,5,5h37c2.8,0,5-2.2,5-5S446.4,935.1,443.6,935.1z"/>
				<path fill="#4E4C4F" d="M387.1,954.1h-32c-2.8,0-5,2.2-5,5s2.2,5,5,5h32c2.8,0,5-2.2,5-5S389.9,954.1,387.1,954.1z"/>
				<path fill="#4E4C4F" d="M443.6,954.1h-37c-2.8,0-5,2.2-5,5s2.2,5,5,5h37c2.8,0,5-2.2,5-5S446.4,954.1,443.6,954.1z"/>
				<path fill="#4E4C4F" d="M387.1,973h-32c-2.8,0-5,2.2-5,5s2.2,5,5,5h32c2.8,0,5-2.2,5-5S389.9,973,387.1,973z"/>
				<path fill="#4E4C4F" d="M443.6,973h-37c-2.8,0-5,2.2-5,5s2.2,5,5,5h37c2.8,0,5-2.2,5-5S446.4,973,443.6,973z"/>
				<path fill="#4E4C4F" d="M387.1,991.9h-32c-2.8,0-5,2.2-5,5s2.2,5,5,5h32c2.8,0,5-2.2,5-5S389.9,991.9,387.1,991.9z"/>
				<path fill="#4E4C4F" d="M443.6,991.9h-37c-2.8,0-5,2.2-5,5s2.2,5,5,5h37c2.8,0,5-2.2,5-5S446.4,991.9,443.6,991.9z"/>
				<path fill="#4E4C4F" d="M387.1,1010.8h-32c-2.8,0-5,2.2-5,5s2.2,5,5,5h32c2.8,0,5-2.2,5-5S389.9,1010.8,387.1,1010.8z"/>
				<path fill="#4E4C4F" d="M443.6,1010.8h-37c-2.8,0-5,2.2-5,5s2.2,5,5,5h37c2.8,0,5-2.2,5-5S446.4,1010.8,443.6,1010.8z"/>
				<path fill="#4E4C4F" d="M387.1,1029.7h-32c-2.8,0-5,2.2-5,5s2.2,5,5,5h32c2.8,0,5-2.2,5-5S389.9,1029.7,387.1,1029.7z"/>
				<path fill="#4E4C4F" d="M443.6,1029.7h-37c-2.8,0-5,2.2-5,5s2.2,5,5,5h37c2.8,0,5-2.2,5-5S446.4,1029.7,443.6,1029.7z"/>
				<path fill="#4E4C4F" d="M387.1,1048.6h-32c-2.8,0-5,2.2-5,5s2.2,5,5,5h32c2.8,0,5-2.2,5-5S389.9,1048.6,387.1,1048.6z"/>
				<path fill="#4E4C4F" d="M443.6,1048.6h-37c-2.8,0-5,2.2-5,5s2.2,5,5,5h37c2.8,0,5-2.2,5-5S446.4,1048.6,443.6,1048.6z"/>
				<path fill="#4E4C4F" d="M387.1,1067.6h-32c-2.8,0-5,2.2-5,5s2.2,5,5,5h32c2.8,0,5-2.2,5-5S389.9,1067.6,387.1,1067.6z"/>
				<path fill="#4E4C4F" d="M443.6,1067.6h-37c-2.8,0-5,2.2-5,5s2.2,5,5,5h37c2.8,0,5-2.2,5-5S446.4,1067.6,443.6,1067.6z"/>
				<path fill="#4E4C4F" d="M387.1,1086.5h-32c-2.8,0-5,2.2-5,5s2.2,5,5,5h32c2.8,0,5-2.2,5-5S389.9,1086.5,387.1,1086.5z"/>
				<path fill="#4E4C4F" d="M443.6,1086.5h-37c-2.8,0-5,2.2-5,5s2.2,5,5,5h37c2.8,0,5-2.2,5-5S446.4,1086.5,443.6,1086.5z"/>
				<rect x="360.1" y="1136.6" fill="#FFFFF2" width="74.3" height="22.2"/>
				<rect x="841.7" y="951.5" fill="#F2862B" width="429.5" height="78.3"/>
				<path fill="#4E4C4F" d="M836.7,1039.7h439.5c2.8,0,5-2.2,5-5v-88.3c0-2.8-2.2-5-5-5H836.7c-2.8,0-5,2.2-5,5v88.3
					C831.7,1037.5,833.9,1039.7,836.7,1039.7z M841.7,951.5h429.5v78.3H841.7V951.5z"/>
				<polygon fill="#FFB419" points="1044.1,669.4 1131.8,669.4 1185.5,669.4 1142.2,627.5 1000.8,627.5 932.5,627.5 889.2,669.4 
									"/>
			</g>
		</g>
	</g>
</g>
</svg>
